Coordinates
version=1
nRows=8
nColumns=28
inDegrees=yes

Units are S.I. units (second, meters, Newtons, ...)
Angles are in degrees.

endheader
time	pelvis_tilt	pelvis_list	pelvis_rotation	pelvis_tx	pelvis_ty	pelvis_tz	hip_flexion_r	hip_adduction_r	hip_rotation_r	knee_angle_r	ankle_angle_r	subtalar_angle_r	mtp_angle_r	hip_flexion_l	hip_adduction_l	hip_rotation_l	knee_angle_l	socket_flexion	socket_adduction	socket_rotation	socket_tx	socket_ty	socket_tz	foot_flex	lumbar_extension	lumbar_bending	lumbar_rotation
      0.63333333	     -2.55681457	      0.02575511	      9.99189410	     -0.01210432	      0.98859553	      0.26170352	     28.08650699	     -1.95624362	    -10.82830083	     -8.48525761	     10.83617866	    -18.89365789	     -9.04363829	    -17.62470364	     -2.02678327	     17.91569436	     -8.79898482	      0.00000000	      0.00000000	      0.00000000	      0.00000000	      0.00000000	      0.00000000	      7.65823515	     -9.00731440	     -0.12781682	     -6.72347850
      0.63750000	     -2.58477373	      0.07674478	      9.90142338	     -0.01213167	      0.98850011	      0.26182831	     28.19785215	     -1.99722241	    -10.85597885	     -8.62631271	     10.80522377	    -18.69430887	     -8.91880581	    -17.61401531	     -1.93940591	     17.81408865	     -8.80241149	      0.00000000	      0.00000000	      0.00000000	      0.00000000	      0.00000000	      0.00000000	      7.69240240	     -8.99637038	     -0.21195371	     -6.65270066
      0.64166667	     -2.52103834	     -0.08228001	      9.99110686	     -0.00564410	      0.98764678	      0.26197387	     28.38071646	     -1.83552528	    -10.74570252	     -9.54471182	     10.51547505	    -18.83124797	     -8.88523383	    -17.82773593	     -2.15226847	     17.80965048	     -9.17658978	      0.00000000	      0.00000000	      0.00000000	      0.00000000	      0.00000000	      0.00000000	      7.59815045	     -8.95883146	      0.08024713	     -6.68840684
      0.64583333	     -2.46204152	     -0.22667919	     10.11838574	      0.00073171	      0.98687147	      0.26206891	     28.49240914	     -1.68681959	    -10.50092617	    -10.31190098	     10.24644078	    -18.82265051	     -8.87684397	    -17.98853842	     -2.34867121	     17.86858528	     -9.62759761	      0.00000000	      0.00000000	      0.00000000	      0.00000000	      0.00000000	      0.00000000	      7.47651506	     -8.94644031	      0.35308297	     -6.68676618
      0.65000000	     -2.37387343	     -0.37508777	     10.05050349	      0.00730020	      0.98599237	      0.26242551	     28.78466202	     -1.50587697	    -10.49694974	    -11.48579636	      9.74400564	    -18.91162346	     -8.82696514	    -18.24416484	     -2.50085415	     17.64586276	    -10.01664291	      0.00000000	      0.00000000	      0.00000000	      0.00000000	      0.00000000	      0.00000000	      7.41741403	     -8.93408507	      0.61408607	     -6.72442641
      0.65416667	     -2.30321248	     -0.53140195	     10.08711402	      0.01374614	      0.98528335	      0.26264345	     28.94793002	     -1.32385298	    -10.31216544	    -12.38648350	      9.40740276	    -18.90716982	     -8.76608038	    -18.38477080	     -2.67155844	     17.60826216	    -10.55441623	      0.00000000	      0.00000000	      0.00000000	      0.00000000	      0.00000000	      0.00000000	      7.23888358	     -8.93722640	      0.90298166	     -6.70901643
      0.65833333	     -2.49954244	     -0.57970082	      9.90092997	      0.02066847	      0.98389540	      0.26309009	     29.68487148	     -1.34638950	    -10.66708556	    -13.80725168	      7.50489272	    -19.18798689	     -2.44953109	    -18.34939120	     -2.61581184	     17.24781607	    -11.02073772	      0.00000000	      0.00000000	      0.00000000	      0.00000000	      0.00000000	      0.00000000	      7.12145621	     -8.54190922	      0.96152605	     -6.58286065
      0.66250000	     -2.35872173	     -0.75506601	      9.85125873	      0.02725629	      0.98325619	      0.26343292	     29.84092409	     -1.13054571	    -10.62063515	    -14.85018347	      7.06637190	    -19.21350028	     -2.44387530	    -18.57237839	     -2.78808947	     17.05601309	    -11.56074898	      0.00000000	      0.00000000	      0.00000000	      0.00000000	      0.00000000	      0.00000000	      6.94418415	     -8.59156714	      1.26752607	     -6.55617468
